<?xml version="1.0" encoding="UTF-8" standalone="no"?>
<svg
   version="1.1"
   id="svg1"
   xml:space="preserve"
   width="31.999998"
   height="30.433495"
   xmlns="http://www.w3.org/2000/svg"
   xmlns:svg="http://www.w3.org/2000/svg"><defs
   id="defs1" />
    <g
   id="layer2"
   style="display:inline"
   transform="matrix(0.07455417,0,0,0.07455417,-52.661621,-23.514143)"><path
   style="fill:#800000"
   d="m 1045.2027,613.88267 c 4.9521,-29.7126 -1.4149,-34.6647 4.9521,-38.55564 6.3669,-3.89093 2.1223,-15.21001 -3.5372,-13.08769 -5.6595,2.12233 -12.0265,5.65955 -9.1968,13.44142 2.8298,7.78187 -1.0611,42.09285 -5.6595,45.98379 -4.5984,3.89093 13.4414,-7.78188 13.4414,-7.78188 z"
   id="path2" />
        <path
   style="fill:#800000"
   d="m 901.67839,417.44833 c -34.76652,0 -29.01378,0 -33.76604,3.00143 -4.75226,3.00142 -6.50309,1.75083 -6.50309,8.75416 0,7.00332 -2.25107,28.51354 -2.25107,28.51354 z"
   id="path4" />
        <path
   style="fill:#550000"
   d="m 764.39204,659.69049 c 10.25792,14.50258 5.30582,3.1835 35.37215,27.944 30.06632,24.7605 62.96241,21.93073 70.03684,21.93073 7.07443,0 6.01327,-7.78187 12.73397,-4.24466 6.72071,3.53722 16.97863,2.12233 24.40678,1.06117 7.42815,-1.06117 27.59028,2.12232 32.54238,6.7207 4.9521,4.59838 11.6728,15.21002 19.8084,8.1356 8.13559,-7.07443 18.39351,-15.91747 8.48931,-20.16213 -9.9042,-4.24465 -12.02653,-0.35372 -21.93073,-0.70744 -9.9042,-0.35372 -27.23655,-0.70744 -26.88283,-6.72071 0.35372,-6.01326 10.25793,-12.73397 19.10096,-12.73397 8.84304,0 27.944,-7.78187 31.83493,-11.67281 3.89094,-3.89093 8.48932,-9.19675 19.10096,-7.07443 10.61164,2.12233 25.82164,1.76861 23.34564,-2.47605 -2.4761,-4.24465 -2.4761,-15.91746 -15.21005,-13.79513 -12.73397,2.12233 -24.05306,8.48931 -31.12748,11.67281 -7.07443,3.18349 -33.60354,10.96536 -33.60354,10.96536 z"
   id="path8" />
        <path
   style="display:inline;fill:#800000"
   d="m 1026.5435,627.49311 c -0.7504,12.50594 1.2506,16.25772 -12.2558,25.01188 -13.5065,8.75416 -10.505,14.25677 -6.0029,14.50689 4.5021,0.25012 8.0038,-7.75368 16.0076,-15.25725 8.0038,-7.50356 26.0124,-15.00713 26.0124,-15.00713 z"
   id="path5" />
        <path
   style="fill:#550000"
   d="m 749.18202,588.94621 27.02935,-14.77479 17.53955,51.56182 c 0,0 -14.14886,3.18349 -33.60354,1.7686 -19.45467,-1.41488 -19.8084,-2.82977 -30.06632,-8.13559 -10.25792,-5.30582 -5.65954,-5.30582 -10.96536,-5.30582 -5.30582,0 -12.73397,-16.97863 -4.59838,-21.22329 8.13559,-4.24466 34.6647,-3.89093 34.6647,-3.89093 z"
   id="path7" />
        <path
   style="fill:#800000"
   d="m 807.38359,490.73315 c -40.01901,-5.00238 -71.53399,44.02091 -79.03755,61.52923 -7.50357,17.50832 -13.00618,17.50832 -19.50927,33.01569 -6.50309,15.50736 0.50024,25.01188 12.50594,26.51259 12.00571,1.50072 10.00476,5.00238 24.01141,-13.50641 14.00665,-18.5088 22.26058,-20.25963 26.76272,-16.75796 4.50214,3.50166 23.76128,-0.25012 23.76128,-0.25012 z"
   id="path6" />
        <path
   style="fill:#aa0000"
   d="m 761.09161,607.4749 c 2.00095,-0.50024 12.50594,-41.51973 35.01664,-92.04373 22.51069,-50.524 39.01853,-58.02757 65.53113,-76.03613 26.5126,-18.00855 53.52543,-41.51972 60.52876,-46.02186 7.00332,-4.50214 34.5164,-34.01616 38.01806,-38.01806 3.50166,-4.0019 6.00285,-6.00285 6.00285,-6.00285 0,0 -0.50024,-18.00856 14.50689,-27.51308 15.00713,-9.50451 30.01426,-6.50309 36.01716,-3.50166 6.0028,3.00143 13.0062,13.50642 19.5093,12.0057 6.5031,-1.50071 34.5164,-3.50166 45.5216,9.50452 11.0052,13.00618 5.5525,41.92001 -17.0081,87.04135 -7.0033,14.00666 -21.01,22.5107 -35.0166,39.51878 -14.0067,17.00808 -16.5079,9.50451 -16.5079,13.50642 0,4.0019 -16.00761,42.01996 -21.00999,53.02519 -5.00238,11.00523 1.50071,5.00237 -2.50119,19.50927 -4.0019,14.50689 -10.00475,21.00998 -5.50261,24.51164 4.50214,3.50167 8.0038,2.00095 48.52309,26.01236 0,0 13.0061,10.50499 20.0095,3.00143 7.0033,-7.50357 40.019,-33.51593 45.0214,-41.51973 5.0023,-8.0038 8.3072,-20.90422 18.8122,-18.90327 10.505,2.00095 12.7027,11.89994 7.2001,18.40303 -5.5026,6.50309 -9.5866,-6.15049 -19.009,8.50404 -9.5925,14.91909 -25.7533,23.07412 -26.0124,25.01189 -2.5801,19.29913 25.0119,7.00332 28.0133,5.00237 3.0015,-2.00095 13.8346,-12.0115 22.5107,-8.0038 12.9981,6.0041 2.0071,20.77816 -3.5016,21.51022 -3.9979,0.53128 -9.7547,-3.25155 -24.7618,-0.75036 -15.0071,2.50119 -17.7584,3.25155 -23.7613,4.25202 -6.0028,1.00048 -21.01,22.01046 -30.5145,22.01046 -9.5045,0 -45.5216,-13.50642 -59.52826,-23.01093 -14.00666,-9.50452 -35.01664,-26.5126 -35.01664,-26.5126 0,0 -12.50594,12.50594 -18.00856,17.00808 -5.50261,4.50214 -14.50689,13.00618 -14.50689,13.00618 0,0 22.01046,16.50784 25.01188,22.5107 3.00143,6.00285 -1.00047,17.50832 -2.50118,23.01093 -1.50072,5.50261 -4.0019,15.50737 -14.5069,15.50737 -10.50499,0 -64.34859,-0.0754 -93.36237,0.92506 -29.01379,1.00047 -61.9792,-18.47325 -61.9792,-18.47325 0,0 -19.27692,-3.25459 -20.27739,-14.25982 -1.00048,-11.00523 4.03745,-26.7198 16.54339,-29.72123 12.50594,-3.00142 16.0076,-2.00095 33.51592,-1.00047 17.50832,1.00047 -36.01711,-1.00048 -36.01711,-1.00048 z"
   id="path1" /></g>
    <g
   id="layer3"
   style="display:inline"
   transform="matrix(0.07455417,0,0,0.07455417,-52.661621,-23.514143)"><ellipse
   style="opacity:1;fill:#2b0000"
   id="path9"
   cx="1040.1014"
   cy="-246.58057"
   rx="8.3124542"
   ry="2.987721"
   transform="rotate(30.937118)" />
        <path
   id="path10"
   style="opacity:1;fill:#2b0000"
   d="m 1049.6684,334.35519 c 0,3.2722 -3.6424,5.92484 -8.1356,5.92484 -4.4932,0 -11.1422,-1.23775 -11.1422,-4.50995 0,-3.2722 6.7158,-4.79919 11.1422,-5.57111 6.0849,-1.06117 8.1356,0.88402 8.1356,4.15622 z" />
        <path
   id="path11"
   style="opacity:1;fill:#2b0000"
   d="m 1078.143,338.59985 c 0,3.46757 -3.7084,5.57115 -9.3737,5.57112 -5.6653,-1e-5 -9.1967,-1.57299 -9.1967,-5.04054 0,-3.46754 4.4157,-4.33307 10.081,-4.33308 5.6653,-2e-5 8.4894,0.33494 8.4894,3.8025 z" />
        <path
   id="path12"
   style="opacity:1;fill:#2b0000"
   d="m 1019.7789,337.27339 c 0,4.88386 -7.9689,1.06115 -10.7,3.36035 -3.8484,3.23965 -7.3398,2.40784 -7.3398,-2.47604 0,-4.88389 1.9556,-9.19678 6.986,-9.19676 5.0304,1e-5 11.0538,3.42859 11.0538,8.31245 z" />
        <ellipse
   style="opacity:1;fill:#2b0000"
   id="path13"
   cx="994.48785"
   cy="325.95432"
   rx="6.8975682"
   ry="4.7752395" />
        <path
   id="path14"
   style="opacity:1;fill:#2b0000"
   d="m 981.75385,342.66766 c 0,5.03039 -5.79394,11.0538 -8.57774,11.0538 -2.78381,0 -1.50332,-6.02341 -1.50332,-11.0538 0,-5.03039 4.02533,-7.51657 6.80914,-7.51657 2.7838,0 3.27192,2.48618 3.27192,7.51657 z" />
        <ellipse
   style="opacity:1;fill:#2b0000"
   id="path15"
   ry="9.4712782"
   rx="3.5929787"
   cy="-433.36023"
   cx="931.74689"
   transform="rotate(45.789149)" />
        <ellipse
   style="fill:#2b0000"
   id="path3"
   cx="449.04141"
   cy="924.02228"
   rx="9.7546349"
   ry="6.7532086"
   transform="rotate(-41.443818)" />
        <path
   style="fill:#2b0000"
   d="m 973.46249,368.17492 c 8.50404,0 0.50024,6.50309 5.50262,9.00428 5.00237,2.50119 13.00618,7.50356 7.50356,10.00475 -5.50261,2.50119 -13.50642,4.0019 -13.00618,-3.00142 0.50024,-7.00333 -4.0019,-4.50214 -2.50119,-11.00523 1.50072,-6.50309 2.50119,-5.00238 2.50119,-5.00238 z"
   id="path16" />
        <path
   style="fill:#2b0000"
   d="m 997.97414,373.67753 c 0,0 5.00236,-12.50594 8.50406,-10.50499 3.5016,2.00095 6.5031,9.00428 1.5007,11.50547 -5.0024,2.50119 -8.00381,3.50166 -10.00476,-1.00048 z"
   id="path17" />
        <path
   style="fill:#2b0000"
   d="m 989.4701,349.66613 c 4.0019,4.50214 1.50071,7.00332 -5.00238,9.50451 -6.50309,2.50119 0,-11.50546 5.00238,-9.50451 z"
   id="path18" />
        <path
   style="fill:#2b0000"
   d="m 1016.9832,356.16922 c 10.505,-8.50404 21.01,1.00047 21.01,1.00047 0,0 -15.0072,10.00475 -21.01,-1.00047 z"
   id="path19" />
        <path
   style="fill:#2b0000"
   d="m 1048.9984,353.16779 c 0,0 0,-9.50452 11.0052,-4.50214 11.0052,5.00238 6.5031,4.50214 6.5031,4.50214 0,0 -9.0043,11.50547 -17.5083,0 z"
   id="path20" />
        <path
   style="fill:#2b0000"
   d="m 1088.0169,358.17017 c -8.0038,1.00047 -14.0066,6.50309 -11.5054,9.00427 2.5011,2.50119 5.5026,0 -3.5017,6.50309 -9.0043,6.50309 -14.0067,10.00476 -12.506,13.50642 1.5008,3.50166 13.0062,-4.50214 16.0077,-9.00428 3.0014,-4.50214 8.504,-5.50261 8.504,-5.50261 z"
   id="path21" />
        <path
   style="fill:#2b0000"
   d="m 1038.1724,371.40752 c -9.5504,-5.30583 -17.686,0.35372 -14.8563,4.24465 2.8298,3.89094 14.8563,-4.24465 14.8563,-4.24465 z"
   id="path22" />
        <path
   style="fill:#2b0000"
   d="m 1044.8931,377.06706 c -0.3537,1.06116 -0.7074,5.65954 -2.8297,6.36699 -2.1224,0.70744 -7.7819,-6.01327 -3.891,-6.36699 3.891,-0.35372 6.7207,0 6.7207,0 z"
   id="path23" />
        <path
   style="fill:#2b0000"
   d="m 1013.0582,379.89683 c 4.5984,-3.89094 9.5505,-0.35372 9.5505,-0.35372 0,0 2.8298,1.06116 -3.5372,3.18349 -6.367,2.12233 -6.0133,-2.82977 -6.0133,-2.82977 z"
   id="path24" />
        <path
   style="fill:#2b0000"
   d="m 1005.9838,387.32498 c 0,0 2.8298,22.28445 -7.78189,21.22329 -10.61164,-1.06117 3.18349,-22.9919 7.78189,-21.22329 z"
   id="path25" />
        <path
   style="fill:#2b0000"
   d="m 1009.521,428.71039 c 2.4761,-15.91746 9.1968,-20.51584 17.6861,-31.12749 8.4893,-10.61164 18.7472,-14.14885 23.6993,-9.55048 4.9521,4.59838 7.0744,27.23656 -4.2446,37.14076 -11.3191,9.9042 -27.5903,9.55047 -37.1408,3.53721 z"
   id="path26" />
        <path
   style="fill:#2b0000"
   d="m 982.99189,415.26898 c 8.48932,-4.59838 6.01327,-14.14886 0,-14.14886 -6.01326,0 -12.73397,2.12233 -12.73397,7.07443 0,4.9521 6.01327,7.78187 12.73397,7.07443 z"
   id="path27" />
        <path
   style="fill:#2b0000"
   d="m 985.11422,419.15991 c 5.65954,0 7.42815,6.36699 2.47605,11.31909 -4.9521,4.9521 -9.9042,1.06116 -6.36698,-4.59838 3.53721,-5.65954 3.89093,-6.72071 3.89093,-6.72071 z"
   id="path28" />
        <path
   style="fill:#2b0000"
   d="m 1008.1061,448.51879 c 0,0 12.0265,-2.82977 12.0265,-8.13559 0,-5.30582 13.7952,-2.12233 7.7819,8.13559 -6.0132,10.25792 -21.2233,17.68607 -19.8084,0 z"
   id="path29" />
        <path
   style="fill:#2b0000"
   d="m 985.11422,448.87251 c 15.20998,4.59838 8.13559,22.9919 2.12233,26.17539 -6.01326,3.18349 -14.8563,-4.24466 -13.79514,-11.67281 1.06117,-7.42815 6.72071,-15.91746 11.67281,-14.50258 z"
   id="path30" />
        <path
   style="fill:#2b0000"
   d="m 1013.4119,479.29256 c 0,0 -15.56371,42.44657 -15.91743,42.62343 -0.35372,0.17686 -8.13559,-18.9241 -6.36698,-21.40015 1.7686,-2.47605 5.65954,-2.47605 5.8364,-7.95873 0.17686,-5.48268 9.37361,-12.91083 16.44801,-13.26455 z"
   id="path31" />
        <path
   style="fill:#2b0000"
   d="m 984.93736,495.03316 c 10.25792,7.78187 -10.7885,27.944 -16.27119,24.93736 -5.48268,-3.00663 -9.01989,-18.92409 16.27119,-24.93736 z"
   id="path32" />
        <path
   style="fill:#2b0000"
   d="m 949.91894,365.92484 c 3.70127,0.56943 -11.19953,21.72296 -12.73397,14.50257 -0.83622,-3.93486 14.81156,-15.1951 12.73397,-14.50257 z"
   id="path33" />
        <path
   style="fill:#2b0000"
   d="m 944.43626,411.73176 c 6.7207,0.70744 -1.41489,5.65954 4.24465,9.19676 5.65955,3.53721 9.9042,9.55048 3.89094,17.33235 -6.01327,7.78187 -15.56375,-4.24466 -15.56375,-12.02653 0,-7.78187 1.06117,-15.91747 7.42816,-14.50258 z"
   id="path34" />
        <path
   style="fill:#2b0000"
   d="m 947.26603,455.94694 c 20.51584,1.06117 9.55048,30.42005 4.59838,31.48121 -4.9521,1.06116 -15.56375,-6.01326 -13.79514,-16.27119 1.76861,-10.25792 4.59838,-15.21002 9.19676,-15.21002 z"
   id="path35" />
        <path
   style="fill:#2b0000"
   d="m 928.51879,432.60133 c 8.48931,8.84303 -7.78187,23.69933 -10.61164,23.69933 -2.82977,0 -11.31909,1.76861 -10.61165,-5.65954 0.70745,-7.42815 13.0877,-19.45468 21.22329,-18.03979 z"
   id="path36" />
        <path
   style="fill:#2b0000"
   d="m 933.47089,383.08032 c 0,0 -0.35372,8.1356 -5.65954,11.67281 -5.30582,3.53722 -11.31909,3.18349 -11.31909,3.18349 z"
   id="path37" />
        <path
   style="fill:#2b0000"
   d="m 925.93992,404.94239 c 13.00617,10.00475 -15.50737,24.76176 -15.25725,19.50927 0.25012,-5.2525 -2.00095,-9.2544 5.00237,-15.25725 7.00333,-6.00285 10.25488,-4.25202 10.25488,-4.25202 z"
   id="path38" />
        <path
   style="fill:#2b0000"
   d="m 908.18148,420.44976 c -4.25202,-0.75036 -9.00428,10.75511 -13.2563,12.75606 -4.25202,2.00095 -10.25487,-1.50072 -7.75368,-6.00286 2.50118,-4.50213 9.50451,-11.00522 21.00998,-6.7532 z"
   id="path39" />
        <path
   style="fill:#2b0000"
   d="m 889.9228,450.2139 c 11.50547,4.75225 5.50262,14.25677 2.50119,20.0095 -3.00142,5.75274 -9.00428,6.75321 -17.2582,4.25202 -8.25392,-2.50118 6.50309,-26.76271 14.75701,-24.26152 z"
   id="path40" />
        <path
   style="fill:#2b0000"
   d="m 875.66603,435.707 c 11.00523,4.75226 -25.01188,28.26343 -27.26295,28.76367 -2.25107,0.50024 -12.75606,3.75178 -3.75179,-6.25297 9.00428,-10.00475 25.26201,-23.76129 31.01474,-22.5107 z"
   id="path41" />
        <path
   style="fill:#2b0000"
   d="m 883.7011,423.38865 c 0,0 -7.78495,1.84463 -8.28519,-5.65893 3.4704,-0.31266 16.28899,-0.65657 16.28899,-0.65657 -2.07194,2.03255 -5.17754,4.01262 -8.0038,6.3155 z"
   id="path42" />
        <path
   style="fill:#2b0000"
   d="m 946.69978,516.74551 c 22.51069,-1.2506 6.50309,24.51164 2.00095,27.76319 -4.50214,3.25154 -15.00713,-4.75226 -13.50642,-12.50594 1.50071,-7.75369 5.50262,-13.75654 11.50547,-15.25725 z"
   id="path43" />
        <path
   style="fill:#2b0000"
   d="m 916.18528,477.97709 c 18.00856,6.50309 12.25582,30.26438 9.50452,31.51497 -2.75131,1.25059 -5.75274,8.0038 -11.25535,4.75226 -5.50262,-3.25155 -10.75511,-8.75416 -10.75511,-19.75939 0,-11.00523 7.00333,-16.75796 12.50594,-16.50784 z"
   id="path44" />
        <path
   style="fill:#2b0000"
   d="m 957.70081,540.13265 c 0,0 -2.47605,30.24318 -3.89094,31.30434 -1.41488,1.06117 -1.23802,5.65955 -4.24465,2.47605 -3.00664,-3.18349 -6.19013,-17.86293 -4.77524,-19.63154 1.41488,-1.7686 9.19675,-15.03316 12.91083,-14.14885 z"
   id="path45" />
        <path
   style="fill:#2b0000"
   d="m 975.38688,546.67649 c 9.9042,0 5.12896,9.19676 2.12233,12.73397 -3.00663,3.53722 2.29919,8.48932 0.35372,10.25793 -1.94547,1.7686 -9.37362,-3.00664 -9.01989,-9.19676 0.35372,-6.19013 -2.12233,-14.50258 6.54384,-13.79514 z"
   id="path46" />
        <path
   style="fill:#2b0000"
   d="m 888.67221,505.74028 c 14.00665,26.26248 -24.51165,30.01426 -26.76272,30.5145 -2.25107,0.50023 -10.25487,-5.00238 -9.75463,-10.505 0.50024,-5.50261 23.76129,-19.50926 36.51735,-20.0095 z"
   id="path47" />
        <path
   style="fill:#2b0000"
   d="m 864.16056,478.22721 c 13.2563,12.75606 -16.75796,28.26342 -21.76033,20.75986 -5.00238,-7.50357 4.0019,-23.51117 21.76033,-20.75986 z"
   id="path48" />
        <path
   style="fill:#2b0000"
   d="m 839.89904,474.47542 c 6.25297,5.50262 -6.25297,14.00666 -9.00428,12.50595 -2.75131,-1.50072 -2.25107,-13.75654 9.00428,-12.50595 z"
   id="path49" />
        <path
   style="fill:#2b0000"
   d="m 825.89238,466.90933 c -15.44483,17.07061 -18.75891,26.88777 -18.75891,26.88777 0,0 4.68973,0.50024 7.25345,-6.3155 2.56371,-6.81573 10.81764,-7.87874 12.0057,-12.38088 1.18807,-4.50214 -0.50024,-8.19139 -0.50024,-8.19139 z"
   id="path50" />
        <path
   style="fill:#2b0000"
   d="m 823.28666,494.32572 c 18.74724,8.84303 -4.0678,26.17539 -9.9042,21.75387 -5.8364,-4.42152 1.06117,-20.51585 9.9042,-21.75387 z"
   id="path51" />
        <path
   style="fill:#2b0000"
   d="m 837.61238,511.48121 c 13.79514,7.95873 -2.82977,18.39351 -4.9521,18.9241 -2.12233,0.53058 -14.32572,-11.31909 4.9521,-18.9241 z"
   id="path52" />
        <path
   style="fill:#2b0000"
   d="m 908.88725,538.36404 c 22.63817,0 15.03316,24.22992 9.0199,27.41341 -6.01327,3.18349 -18.39352,0.17686 -18.9241,-13.44142 -0.53058,-13.61827 9.9042,-13.97199 9.9042,-13.97199 z"
   id="path53" />
        <path
   style="fill:#2b0000"
   d="m 955.22476,577.62712 c 0,0 -6.01326,14.50258 -0.8843,15.56374 5.12896,1.06117 7.78187,-7.07443 6.7207,-9.37362 -1.06116,-2.29919 -5.8364,-6.19012 -5.8364,-6.19012 z"
   id="path54" />
        <path
   style="fill:#2b0000"
   d="m 975.91746,580.81061 c 6.36699,2.47605 3.89094,9.55048 2.65292,10.08106 -1.23803,0.53058 -6.72071,0 -2.65292,-10.08106 z"
   id="path55" />
        <path
   style="fill:#2b0000"
   d="m 963.27192,600.53058 c 10.34636,8.48932 14.41415,10.87694 14.41415,10.87694 0,0 15.03316,-1.94547 11.9381,-8.75461 -3.09506,-6.80914 -26.35225,-2.12233 -26.35225,-2.12233 z"
   id="path56" />
        <path
   style="fill:#2b0000"
   d="m 996.61017,623.69934 7.25133,3.62564 c 0,0 10.7,-0.79587 12.8224,-7.60501 2.1223,-6.80914 -2.1224,-15.47531 -5.4827,-15.21002 -3.3604,0.26529 -7.4282,5.57111 -7.1629,10.08106 0.2653,4.50995 1.238,7.33972 -7.42813,9.10833 z"
   id="path57" />
        <path
   id="path2-6"
   style="display:inline;fill:#2b0000;fill-opacity:1"
   d="m 1048.1821,562.06218 c -0.4982,-0.0201 -1.0163,0.0608 -1.5469,0.25976 -5.6595,2.12233 -12.027,5.65955 -9.1973,13.44141 0.8719,2.39755 1.1032,7.31942 0.875,13.08789 a 19.100958,21.930729 0 0 0 6.1074,1.19727 19.100958,21.930729 0 0 0 2.8653,-0.25977 c -0.093,-9.08725 -1.1002,-11.94445 2.8867,-14.38086 5.77,-3.52615 2.825,-13.15129 -1.9902,-13.3457 z" />
        <path
   style="fill:#2b0000;fill-opacity:1"
   d="m 924.68932,583.027 c 10.75511,-0.50024 13.00618,12.0057 5.75273,20.50974 -7.25344,8.50404 -13.00618,13.75654 -19.75938,6.75321 -6.75321,-7.00333 -1.00048,-12.25582 4.25202,-15.25725 5.25249,-3.00143 3.00142,-8.75416 9.75463,-12.0057 z"
   id="path58" />
        <path
   style="fill:#2b0000;fill-opacity:1"
   d="m 1028.8348,600.77784 c 0,0 5.5316,6.7608 2.155,10.01235 -3.3766,3.25154 -1.1255,13.00618 0.6253,18.00855 1.7509,5.00238 -0.7503,8.6291 -0.7503,8.6291 l 11.6305,3.37661 c 0,0 0.6253,-5.00238 3.2515,-5.62768 2.6263,-0.62529 6.253,4.6272 6.253,4.6272 0,0 7.0033,-4.6272 7.6286,-5.50261 0.6253,-0.87542 -0.7503,-7.12839 -6.1279,-7.37851 -5.3775,-0.25012 0.7504,11.13029 -7.6286,6.50309 -8.379,-4.6272 -2.7513,2.75131 -8.7542,-10.75511 -6.0028,-13.50642 2.7513,-11.00523 -1.3756,-17.50832 -2.4026,-2.21422 -6.9073,-4.38467 -6.9073,-4.38467 z"
   id="path59" />
        <path
   style="fill:#2b0000;fill-opacity:1"
   d="m 1047.3692,591.68755 c 0,0 -3.4488,12.20339 -6.6323,10.52321 -3.1835,-1.68018 -3.3603,2.29919 -0.5306,2.65291 2.8298,0.35372 6.2786,-0.26529 6.2786,-0.26529 z"
   id="path60" />
        <path
   style="fill:#2b0000;fill-opacity:1"
   d="m 1068.8578,625.29108 c 0,0 2.5645,-12.02653 3.2719,-12.64554 0.7074,-0.61901 7.0744,-3.09506 8.3125,-0.61901 1.238,2.47605 2.3876,5.48268 4.7752,5.04053 2.3876,-0.44215 22.2844,-6.80914 25.7332,-6.54385 3.4488,0.26529 3.8025,-8.31245 9.3736,-8.31245 5.5712,0 -6.986,6.986 -2.8297,9.37362 4.1562,2.38762 8.843,3.89093 9.1967,4.15622 0.3538,0.2653 -8.7546,0 -10.2579,-0.97273 -1.5033,-0.97273 -14.2373,0 -16.7133,0.70744 -2.4761,0.70745 -22.0192,3.71408 -23.2572,4.33309 -1.238,0.61901 -7.605,5.48268 -7.605,5.48268 z"
   id="path61" />
        <path
   style="fill:#2b0000;fill-opacity:1"
   d="m 1047.7478,608.53912 c 0.9379,1.50071 -2.126,7.81621 3.8143,7.06586 5.9403,-0.75036 10.3799,2.62624 10.63,-0.93795 0.2502,-3.56419 -2.9388,-12.56847 -5.0023,-13.00618 -3.3141,2.18854 -4.3146,5.81526 -9.442,6.87827 z"
   id="path62" />
        <g
   id="g1"
   transform="translate(0.20841292,0.09019874)"
   style="fill:#2b0000;fill-opacity:1"><path
     id="path1-2"
     style="display:inline;fill:#2b0000;fill-opacity:1"
     d="m 1114.6758,545.3457 c -7.3423,-0.16422 -10.8472,7.51741 -14.4121,14.45899 3.0168,-1.01957 7.3991,-7.83974 12.3672,-8 5.4224,-0.17492 9.9688,6.90779 11.7793,11.16992 4.5421,-6.47713 2.1597,-15.51803 -7.8457,-17.42383 -0.6566,-0.12506 -1.2862,-0.1916 -1.8887,-0.20508 z m -20.1992,23.07227 c -2.0578,2.18466 -5.0803,4.9603 -8.1954,7.79883 2.5603,2.62411 5.0625,5.47723 6.8946,8.30859 0.1762,0.27236 0.2828,0.47077 0.4453,0.72852 3.003,-2.7237 6.0171,-5.91049 8.7598,-9.54688 -3.9541,-1.70618 -6.3757,-4.43676 -7.9043,-7.28906 z m -19.2696,17.66211 c -4.0316,3.48283 -7.9663,6.85091 -11.5429,9.94726 2.0323,6.21656 8.0657,9.12726 16.2812,8.92188 -1.1342,-1.66881 -1.6606,-4.05684 -1.2031,-7.47852 0.092,-0.68482 2.516,-2.43918 5.5879,-4.70117 -1.9642,-1.12927 -4.0809,-2.62926 -6.3633,-4.53125 -0.8931,-0.74424 -1.823,-1.46827 -2.7598,-2.1582 z m 50.7246,7.5 c -4.6979,-0.4394 -9.6127,2.14602 -13.4062,4.69336 12.8571,-2.85517 16.114,-2.15822 17.9687,3.40625 1.512,4.53587 -3.0345,11.26357 -5.5644,14.30859 0.2786,-8e-4 0.5744,0.025 0.8359,-0.01 5.5087,-0.73206 16.4981,-15.50568 3.5,-21.50977 -1.0845,-0.50096 -2.2016,-0.78276 -3.334,-0.88867 z" /></g>
        <path
   style="fill:#2b0000;fill-opacity:1"
   d="m 1025.969,636.25645 c 4.6869,1.59174 15.5638,4.59838 15.5638,4.59838 0,0 -12.3803,5.74797 -16.4481,10.34635 -4.0678,4.59838 -9.6389,0.97273 -11.8496,2.0339 -2.2108,1.06116 13.8835,-5.57112 12.7339,-16.97863 z"
   id="path63" /></g></svg>
